<?xml version="1.0" standalone="no"?>
<!DOCTYPE svg PUBLIC "-//W3C//DTD SVG 1.1//EN" "http://www.w3.org/Graphics/SVG/1.1/DTD/svg11.dtd">
<svg t="1527523012473" class="icon" style="" viewBox="0 0 1024 1024" version="1.1" xmlns="http://www.w3.org/2000/svg" p-id="3180" xmlns:xlink="http://www.w3.org/1999/xlink" width="1024" height="1024">
  <defs>
    <style type="text/css"></style>
  </defs>
  <path
    d="M102.39744 547.21192c0 8.80618 4.915077 15.974001 10.956526 15.974h797.266468c6.041449 0 10.956526-7.167821 10.956527-16.025199V493.862853c0-8.857379-4.915077-16.025199-10.956527-16.025199H113.353966c-6.041449 0-10.956526 7.167821-10.956526 16.025199v53.297868zM976.0012 0h-191.9952a47.973201 47.973201 0 1 0 0 95.9976h143.970801v143.970801a48.024399 48.024399 0 0 0 95.9976 0V47.973201A47.973201 47.973201 0 0 0 976.0012 0m0 735.9816a48.024399 48.024399 0 0 0-48.024399 47.973201v144.022h-143.970801a48.024399 48.024399 0 1 0 0 95.9976h191.9952c26.520937 0 47.973201-21.503462 47.973201-48.0244v-191.9952a47.973201 47.973201 0 0 0-47.973201-47.973201m-735.9816 191.995201H95.9976v-144.022a47.973201 47.973201 0 1 0-95.9976 0v191.9952c0 26.520937 21.503462 48.024399 47.973201 48.0244h191.9952a47.973201 47.973201 0 1 0 0-95.9976m-191.9952-639.984001c26.572136 0 48.024399-21.503462 48.024399-48.024399V95.9976h144.022a47.973201 47.973201 0 0 0 0-95.9976H48.024399A47.973201 47.973201 0 0 0 0 48.024399v191.995201c0 26.469738 21.503462 47.973201 47.973201 47.9732"
    p-id="3181"></path>
</svg>
